<?xml version="1.0" encoding="utf-8"?>
<!-- Generator: Adobe Illustrator 25.4.1, SVG Export Plug-In . SVG Version: 6.00 Build 0)  -->
<svg version="1.1" id="Layer_1" xmlns="http://www.w3.org/2000/svg" xmlns:xlink="http://www.w3.org/1999/xlink" x="0px" y="0px"
	 viewBox="0 0 220.17 139.09" style="enable-background:new 0 0 220.17 139.09;" xml:space="preserve">
<style type="text/css">
	.st0{fill:#030303;}
</style>
<g>
	<path d="M110.08,139.09c-14.1,0-28.21,0-42.31,0c-5.48,0-8.16-2.7-7.8-8.17c1.37-20.82,11.84-35.14,31-43.22
		c1.1-0.46,1.92-0.39,2.98,0.2c10.84,6,21.73,6.01,32.57,0.01c1.06-0.58,1.87-0.64,2.98-0.21c18.52,7.04,30.69,24.26,31.07,44.06
		c0.09,4.53-2.67,7.32-7.33,7.33C138.86,139.11,124.47,139.09,110.08,139.09z"/>
	<path d="M89.51,84.92c-11.87,4.81-20.81,12.65-26.78,23.8c-0.43,0.81-0.94,0.97-1.75,0.97c-17.47-0.02-34.94,0.01-52.42-0.02
		c-5.16-0.01-8.58-3.53-8.56-8.63c0.07-20.02,12.65-38.27,31.32-45.5c0.98-0.38,1.62-0.28,2.48,0.29
		c11.02,7.38,25.04,7.41,36.06,0.04c0.99-0.66,1.79-0.82,2.78-0.25c0.1,0.06,0.21,0.09,0.32,0.12c3.31,1,5.08,2.52,5.14,6.69
		c0.12,8.1,3.78,15.03,9.59,20.73C88.24,83.74,88.83,84.27,89.51,84.92z"/>
	<path d="M130.93,84.91c5.52-4.8,9.17-10.52,10.83-17.45c0.67-2.79,1-5.62,0.87-8.48c-0.04-0.79,0.14-1.32,0.92-1.56
		c0.11-0.03,0.21-0.08,0.31-0.14c2.97-1.77,5.43-2.03,8.93-0.06c11.23,6.32,22.6,5.53,33.5-1.32c0.92-0.58,1.6-0.72,2.63-0.32
		c18.65,7.25,31.25,25.59,31.25,45.55c0,5.01-3.41,8.54-8.47,8.55c-17.41,0.04-34.83,0.01-52.24,0.03c-0.86,0-1.3-0.28-1.72-1.03
		C151.3,97.19,143.47,90.24,130.93,84.91z"/>
	<path d="M110.2,88.93c-16.05-0.02-28.95-13.03-28.94-29.17c0.02-15.9,13.15-28.92,29.1-28.84c15.96,0.08,28.93,13.14,28.88,29.09
		C139.2,75.98,126.17,88.96,110.2,88.93z"/>
	<path d="M197.31,28.97c0.03,15.88-13.06,28.99-28.99,29.03c-15.86,0.04-29.01-13.06-29.08-28.97C139.18,13.14,152.24,0.02,168.18,0
		C184.29-0.02,197.29,12.91,197.31,28.97z"/>
	<path d="M22.86,28.89C22.98,12.65,36.06-0.14,52.42,0c15.83,0.14,28.6,13.35,28.47,29.46C80.77,45.07,67.47,58.11,51.76,58
		C35.82,57.9,22.74,44.73,22.86,28.89z"/>
</g>
</svg>
