<?xml version="1.0" encoding="utf-8"?>
<!-- Generator: Adobe Illustrator 25.4.1, SVG Export Plug-In . SVG Version: 6.00 Build 0)  -->
<svg version="1.1" id="Layer_1" xmlns="http://www.w3.org/2000/svg" xmlns:xlink="http://www.w3.org/1999/xlink" x="0px" y="0px"
	 viewBox="0 0 151.14 175.57" style="enable-background:new 0 0 151.14 175.57;" xml:space="preserve">
<style type="text/css">
	.st0{fill:#030303;}
</style>
<g>
	<path class="st0" d="M148.08,20.8c-0.8-0.37-1.61-0.75-2.41-1.12c-1.17-0.29-2.34-0.59-3.51-0.88c-0.83-0.15-1.69-0.21-2.44-0.67
		c-1.34-0.07-2.59-0.51-3.86-0.89c-0.84-0.14-1.7-0.22-2.45-0.68c-1.34-0.06-2.59-0.5-3.85-0.89c-0.85-0.12-1.71-0.23-2.47-0.67
		c-1.33-0.07-2.58-0.5-3.83-0.9c-0.86-0.11-1.72-0.23-2.48-0.67c-1.33-0.07-2.57-0.48-3.82-0.9c-0.87-0.1-1.73-0.23-2.51-0.66
		c-1.31-0.1-2.56-0.47-3.79-0.9c-0.97-0.1-1.92-0.27-2.79-0.73c-1.22-0.06-2.38-0.41-3.51-0.84c-0.97-0.1-1.92-0.27-2.8-0.73
		c-1.36-0.05-2.61-0.53-3.9-0.89c-0.82-0.18-1.69-0.2-2.43-0.67c-1.34-0.08-2.6-0.51-3.87-0.9c-0.84-0.14-1.69-0.21-2.44-0.67
		c-1.33-0.11-2.61-0.43-3.86-0.85c-0.56,0.04-1.11,0.05-1.6-0.29c-1.83-0.15-3.66-0.31-5.49-0.46C77.32,3.9,76.66,3.89,76,3.88
		c-1.14,0.03-2.28,0.06-3.41,0.09c-1.75,0.22-3.5,0.43-5.25,0.65c-2.49,0.58-4.97,1.15-7.46,1.73C59,6.77,58.08,7.01,57.1,7.05
		c-2.16,0.72-4.36,1.3-6.62,1.63c-1.42,0.58-2.89,0.92-4.41,1.12c-2.17,0.72-4.38,1.29-6.64,1.63c-1.01,0.47-2.07,0.75-3.19,0.79
		c-2.04,0.75-4.14,1.23-6.27,1.57c-1.4,0.59-2.88,0.86-4.36,1.12c-2.29,0.7-4.59,1.34-6.96,1.69c-1.03,0.48-2.12,0.74-3.25,0.81
		c-2.58,0.84-5.2,1.51-7.89,1.94c-1.05,0.39-2.1,0.78-3.15,1.17c-0.39,0.38-0.79,0.76-1.18,1.14c-0.46,0.71-0.34,1.23,0.5,1.52
		c1.27,0.54,2.55,1.09,3.82,1.63c0.44,0.47,0.96,0.62,1.58,0.39c1.63,0.19,3.2,0.59,4.73,1.18c0.44,0.48,0.96,0.64,1.57,0.39
		c1.63,0.19,3.2,0.59,4.73,1.17c0.43,0.53,1,0.47,1.58,0.39c1.61,0.24,3.21,0.55,4.73,1.18c0.42,0.53,1,0.47,1.57,0.4
		c1.63,0.18,3.21,0.57,4.74,1.16c0.42,0.56,0.99,0.48,1.57,0.39c1.63,0.18,3.21,0.58,4.73,1.17c0.41,0.57,0.99,0.49,1.57,0.39
		c1.63,0.18,3.21,0.57,4.73,1.18c0.47,0.75,1.25,0.87,2.03,0.99c1.42,0.23,2.81,0.58,4.17,1.05c2.66,0.69,5.38,1.15,7.98,2.06
		c0.84,0.11,1.67,0.28,2.5,0.49c2.4,0.6,4.71,1.62,7.25,1.52c0.86-0.04,1.71-0.05,2.53,0.24c0.44,0.1,0.88,0.14,1.33,0.17
		c1.83,0.03,3.66,0.02,5.49-0.02c0.56,0.01,1.12-0.04,1.67-0.16c0.83-0.3,1.69-0.25,2.54-0.27c2.53-0.42,5.05-0.9,7.54-1.53
		c2.62-0.76,5.29-1.36,7.95-1.98c4.24-1.22,8.57-2.11,12.84-3.22c2.18-0.63,4.39-1.17,6.6-1.69c1.44-0.44,2.93-0.67,4.4-1.01
		c0.89-0.24,1.38,0.06,1.4,1.02c0.02,0.98-0.01,1.95-0.02,2.92c0.02,0.6-0.03,1.21-0.01,1.82c0.14,2.93,0.31,5.87-2.14,8.12
		c-0.5,0.98-0.62,2.06-0.85,3.11c-0.05,1.74,0.38,3.46,0.23,5.2c-0.05,1.25,0.69,2.47,0.16,3.74c-0.25,1.45-0.08,2.94-0.47,4.37
		c-0.05,1-0.48,1.94-0.49,2.94c0.46,1.15,1.09,0.53,1.68,0.16c0.7-0.45,1.07-1.31,1.93-1.62c0.64,0.67,0.66,1.57,0.99,2.34
		c0.23,0.61,0.42,1.23,0.7,1.81c1.17,1.46,1.6,1.44,2.41-0.17c0.64-1.27,0.9-2.7,1.51-4.01c0.92,0.28,1.24,1.09,1.88,1.51
		c0.49,0.32,0.92,1.07,1.64,0.35c-0.43-1.21-0.81-2.43-0.81-3.74c-0.46-0.78-0.37-1.63-0.32-2.48c-0.4-1.97-0.27-3.94,0.01-5.91
		c-0.05-1.23-0.03-2.45,0.32-3.64c-0.13-0.99-0.26-1.98-0.38-2.97c-0.39-0.68-0.77-1.37-1.15-2.05c-0.4-0.36-0.8-0.73-1.21-1.09
		c-0.38-3.62,0.43-7.22,0.22-10.84c-0.14-2.52,0.16-2.72,2.75-3.37c2.65-0.72,5.32-1.39,7.99-2.03c1.02-0.23,1.97-0.6,2.86-1.15
		c1.54-0.55,3.11-1,4.6-1.67C148.86,22.95,149.31,21.99,148.08,20.8z"/>
	<path class="st0" d="M134.33,104.73c-0.13-0.79-0.26-1.58-0.39-2.36c-0.28-1.3-0.57-2.6-0.85-3.89c-0.45-0.74-0.59-1.57-0.72-2.41
		c-0.45-1.3-0.91-2.6-1.36-3.9c-0.35-0.48-0.61-1-0.65-1.62c-0.64-1.12-1.25-2.26-1.61-3.51c-0.44-0.44-0.72-0.97-0.86-1.58
		c-0.63-1.07-1.25-2.14-1.88-3.2c-0.42-0.64-0.83-1.28-1.25-1.92c-0.65-0.9-1.3-1.8-1.95-2.69c-0.58-0.41-0.99-0.96-1.29-1.6
		c-0.23-1.48-1.77-2.02-2.35-3.25c-0.27-0.37-0.58-0.7-0.89-1.03c-0.89-1.03-2.08-1.71-3.04-2.65c-0.47-0.43-0.9-0.9-1.37-1.32
		c-1.41-1.38-2.89-1.82-4.54-0.36c-0.23,0.21-0.57,0.29-0.84,0.46c-0.85,0.59-1.79,1.04-2.69,1.55c-0.78,0.44-1.21,1-0.59,1.88
		c0.82,0.85,1.94,1.31,2.79,2.12c0.47,0.41,0.89,0.86,1.39,1.23c1.63,0.97,2.58,2.61,3.88,3.9c1.14,0.64,1.67,1.86,2.59,2.71
		c0.51,0.49,0.85,1.11,1.28,1.66c0.83,1.05,1.55,2.19,2.28,3.32c0.3,0.43,0.6,0.86,0.84,1.33c0.65,1.26,1.29,2.52,1.9,3.8
		c0.26,0.47,0.5,0.96,0.72,1.45c0.67,1.31,1.04,2.75,1.61,4.1c0.29,0.69,0.53,1.4,0.66,2.14c0.29,1.24,0.65,2.46,0.9,3.71
		c0.24,0.68,0.21,1.4,0.33,2.09c0.27,1.03,0.23,2.1,0.44,3.14c0.39,1.3,0.12,2.63,0.19,3.95c-0.02,1.6-0.03,3.19-0.02,4.79
		c0.15,1.1-0.07,2.17-0.3,3.24c-0.23,2.5-0.78,4.94-1.48,7.35c-0.23,1.27-0.68,2.47-1.1,3.67c-1.43,4.03-3.4,7.78-5.81,11.31
		c-3.63,5.29-8.08,9.75-13.38,13.38c-3.52,2.42-7.25,4.45-11.32,5.81c-1.21,0.41-2.4,0.86-3.64,1.16c-2.4,0.63-4.8,1.28-7.29,1.47
		c-0.82,0.16-1.64,0.36-2.49,0.27c-1.93-0.1-3.87,0.28-5.8,0.01c-0.65-0.04-1.31,0.03-1.96-0.02c-1.4,0.11-2.75-0.24-4.13-0.38
		c-1.12-0.04-2.2-0.34-3.28-0.58c-1.14-0.25-2.28-0.51-3.4-0.85c-0.73-0.2-1.45-0.45-2.16-0.7c-1.42-0.41-2.79-0.97-4.15-1.53
		c-0.58-0.23-1.15-0.5-1.7-0.8c-1.19-0.57-2.39-1.11-3.46-1.88c-0.52-0.3-1.08-0.54-1.58-0.89c-1.08-0.71-2.17-1.41-3.15-2.25
		c-0.6-0.35-1.11-0.81-1.66-1.24c-0.99-0.6-1.73-1.48-2.55-2.27c-0.45-0.42-0.88-0.86-1.3-1.31c-0.88-0.87-1.76-1.74-2.62-2.62
		c-0.45-0.42-0.86-0.86-1.18-1.38c-0.77-1.1-1.63-2.13-2.38-3.24c-0.31-0.43-0.6-0.87-0.87-1.32c-0.82-1.17-1.39-2.48-2.16-3.68
		c-0.96-1.69-1.62-3.51-2.42-5.27c-0.31-0.69-0.52-1.42-0.73-2.14c-0.56-1.69-1.17-3.37-1.43-5.15c-0.31-1.76-0.77-3.5-0.88-5.29
		c-0.22-0.96-0.34-1.93-0.25-2.92c0-1.48,0.01-2.96,0-4.44c0.04-1.44-0.22-2.9,0.19-4.32c0.18-1.28,0.29-2.56,0.54-3.82
		c0.13-1.52,0.61-2.96,1-4.42c0.78-2.81,1.68-5.58,3.08-8.16c0.86-1.77,1.61-3.59,2.75-5.2c3.2-5.09,7.11-9.53,11.89-13.2
		c0.99-0.76,2.83-1.3,2.47-2.72c-0.37-1.49-2.18-1.84-3.65-2.19c-3.1-1.62-3.11-1.63-5.81,0.8c-0.93,0.83-1.84,1.68-2.74,2.54
		C29.39,76.7,25.42,82.8,22.14,89.4c-1.06,1.11-1.59,2.45-1.63,3.98c-0.69,2.47-1.39,4.94-2.08,7.41c-0.83,0.94-0.78,2.07-0.68,3.21
		c-0.16,1.55-0.33,3.11-0.49,4.66c-0.21,1.36-0.51,2.71-0.26,4.09c0.13,0.53,0.2,1.06-0.03,1.59c0.29,0.76,0.06,1.57,0.2,2.33
		c0.18,1.01-0.69,2.06,0.15,3.02c0.26,1.71,0.52,3.41,0.78,5.12c-0.19,0.6-0.11,1.13,0.36,1.58c0.41,1.57,0.81,3.15,1.22,4.72
		c-0.18,0.63-0.12,1.18,0.53,1.53c0.49,1.31,0.99,2.62,1.48,3.93c0.19,0.57,0.12,1.26,0.74,1.63c0.53,1.06,1.06,2.12,1.58,3.18
		c0.47,0.59,0.22,1.6,1.13,1.94c0.7,1.12,1.4,2.24,2.1,3.36c0.05,0.67,0.42,1.1,1.01,1.37c0.82,1.06,1.63,2.12,2.45,3.18
		c0.17,0.72,0.52,1.28,1.28,1.5c0.76,0.8,1.52,1.6,2.28,2.4c0.36,0.7,0.86,1.26,1.61,1.55c0.91,0.79,1.82,1.59,2.72,2.38
		c0.17,0.82,0.96,0.86,1.52,1.19c0.94,0.68,1.88,1.35,2.81,2.03c0.35,0.65,0.91,0.98,1.62,1.08c1.16,0.68,2.33,1.36,3.49,2.03
		c0.26,0.51,0.65,0.76,1.23,0.62c1.3,0.6,2.6,1.19,3.89,1.79c0.38,0.56,0.91,0.78,1.58,0.69c1.45,0.5,2.91,1,4.36,1.5
		c0.38,0.62,0.98,0.51,1.55,0.43c1.31,0.29,2.62,0.59,3.93,0.88c1.21,1.05,2.73,0.27,4.05,0.69c1.29,0.06,2.6-0.05,3.86,0.36
		c0.62,0.68,1.28,0.46,1.94,0.08c1.64-0.01,3.27-0.03,4.91-0.04c1.1-0.34,2.32,0.6,3.36-0.32c1.81-0.28,3.62-0.56,5.43-0.85
		c1.52-0.18,3.11-0.08,4.41-1.13c2.85-1.07,5.71-2.14,8.56-3.22c2.12-0.21,3.64-1.53,5.2-2.78c8.35-5.27,15.16-12.07,20.41-20.44
		c0.93-1.74,1.85-3.49,2.78-5.23c1.07-2.84,2.14-5.68,3.21-8.52c0.05-0.98,0.33-1.89,0.73-2.78c0.41-2.36,0.83-4.71,1.24-7.07
		c-0.01-1.75,0.03-3.5,0.34-5.24c0-0.84,0-1.68,0-2.52c-0.09-1.35-0.18-2.71-0.28-4.06C134.6,107.09,134.47,105.91,134.33,104.73z"
		/>
	<path class="st0" d="M111.23,39.72c-0.16-2.71-0.38-2.9-2.99-2.48c-0.19,0.03-0.38,0.07-0.57,0.12c-4.63,1.3-9.31,2.42-13.98,3.57
		c-2.58,0.7-5.17,1.42-7.82,1.82c-3.51,0.82-7.08,0.81-10.65,0.75c-1.14-0.02-2.28,0-3.43,0c-0.85,0.04-1.69-0.05-2.54-0.16
		c-4.24-0.55-8.33-1.78-12.47-2.78c-2.65-0.63-5.3-1.26-7.93-1.97c-2.14-0.27-4.12-1.5-6.38-1.08c-0.37-0.04-0.73-0.08-1.1-0.12
		c-0.22,1.07-0.55,2.09-0.44,3.23c0.47,4.6,0.13,9.22,0.14,13.83c0.01,2.46,0.06,4.9,0.28,7.34l-0.01-0.01
		c0.16,0.87,0.96,0.9,1.56,1.2c1.08,0.77,2.48,1.1,3.21,2.34c1.27,1.23,3.03,1.55,4.51,2.38c0.91,0.26,1.73,0.74,2.59,1.13
		c1.38,0.48,2.8,0.87,4.05,1.64c2.57,0.63,5.14,1.22,7.74,1.73c1.2-0.04,2.35,0.37,3.54,0.39c1.24-0.15,2.4,0.3,3.61,0.4
		c0.8,0.02,1.61,0.06,2.41,0.01c1.75-0.06,3.51,0.05,5.27-0.02c2.89-0.47,5.85-0.32,8.69-1.17c2.67-0.52,5.3-1.21,7.86-2.14
		c1.43-0.5,2.84-1.04,4.25-1.57c2.15-0.97,4.2-2.13,6.31-3.17c3.26-1.61,4.89-3.97,4.25-7.66c-0.02-0.67,0.08-1.33,0.02-2
		c0.05-1.87,0.04-3.75,0.03-5.62c-0.09-0.71,0.06-1.42-0.02-2.13c0.02-1.9,0.03-3.79,0.02-5.69
		C111.16,41.12,111.28,40.42,111.23,39.72z"/>
	<path class="st0" d="M121.23,111.93c-0.29-1.21-0.32-2.43-0.29-3.66c-0.28-1.7-0.57-3.41-0.85-5.11c-0.41-0.45-0.41-1.01-0.4-1.57
		c-0.41-1.27-0.81-2.54-1.22-3.81c-0.48-0.61-0.69-1.32-0.84-2.06c-0.64-1.32-1.28-2.64-1.92-3.96c-0.39-0.31-0.61-0.72-0.7-1.21
		c-0.66-1.04-1.33-2.07-2-3.11c-0.55-0.42-0.92-0.98-1.2-1.6c-0.78-0.91-1.56-1.83-2.34-2.74c-1.32-1.3-2.63-2.6-3.95-3.89
		c-0.51-0.42-1.02-0.84-1.53-1.26c-1.07-0.77-2.13-1.54-3.19-2.3c-0.48-0.12-0.88-0.36-1.18-0.78c-1.44-0.77-2.86-1.59-4.57-0.78
		c-1.28,0.64-2.66,0.91-4.07,1.08c-2.05,0.69-4.18,0.88-6.3,1.15l-1.84,0.12c-0.93,0.38-1.94-0.05-2.88,0.28
		c-1.31,0.02-2.63,0.04-3.94,0.05c-0.66-0.01-1.31-0.02-1.97-0.02c-1.86,0.09-3.7,0.11-5.51-0.38c-0.85,0.04-1.7,0.12-2.5-0.32
		c-1.4-0.17-2.8-0.35-4.2-0.51c-2.02-0.57-4.05-1.09-6.06-1.71c-0.79-0.25-1.48-0.2-2.17,0.21c-6.41,4.2-11.98,9.26-16.16,15.75
		c-0.92,1.73-1.84,3.45-2.76,5.18c-0.92,2.73-1.84,5.47-2.76,8.21c-0.14,1.37-0.31,2.72-0.77,4.02c-0.13,1.67-0.26,3.36-0.39,5.03
		c-0.01,0.65-0.02,1.31-0.02,1.97c0.12,1.84,0.25,3.68,0.38,5.51c0.41,1.94,0.81,3.86,1.22,5.8c0.44,0.62,0.52,1.37,0.68,2.08
		c0.73,1.95,1.46,3.89,2.2,5.84c0.94,0.84,1.33,2.03,1.84,3.13c0.35,0.55,0.71,1.11,1.07,1.66c0.71,1,1.41,2,2.12,2.99
		c0.48,0.58,0.96,1.16,1.44,1.74c0.81,0.89,1.63,1.77,2.45,2.66c0.53,0.28,0.95,0.69,1.26,1.21c1.01,0.84,2.03,1.67,3.04,2.5
		c0.44,0.34,0.88,0.68,1.33,1.01c1.13,0.71,2.27,1.44,3.39,2.15c0.57,0.34,1.14,0.68,1.7,1.01c1.14,0.55,2.29,1.09,3.42,1.64
		c0.74,0.06,1.38,0.35,1.97,0.78c1.31,0.41,2.62,0.82,3.93,1.23c0.97,0.14,1.94,0.25,2.83,0.71c1.16,0.16,2.32,0.32,3.48,0.48
		c0.68-0.03,1.36-0.07,1.99,0.26c1.97,0.02,3.92,0.05,5.89,0.08c1.04-0.11,2.1-0.22,3.15-0.34c1.79-0.31,3.58-0.61,5.36-0.92
		c1.24-0.36,2.46-0.72,3.7-1.09c3.65-1.44,7.16-3.17,10.52-5.18c4.92-3.52,9.14-7.76,12.65-12.69c2-3.37,3.72-6.87,5.16-10.51
		c0.38-1.34,0.77-2.69,1.15-4.04c0.3-1.8,0.59-3.6,0.89-5.41c-0.03-0.94-0.08-1.87,0.28-2.77
		C121.23,114.47,121.23,113.2,121.23,111.93z M91.77,96.17H79.16c2.22,1.76,3.82,4.28,4.28,7.79h8.33v3.82h-8.25
		c-0.76,7.79-6.95,12.76-16.74,13.07c5.97,6.19,12.46,13.98,18.88,21.86h-7.34c-5.96-7.19-11.54-13.84-18.72-21.48v-4.74h4.2
		c8.25,0,12.69-3.44,13.22-8.72H59.59v-3.82h17.19c-1.07-4.43-5.12-6.65-11.76-6.65h-5.43v-4.97h32.17V96.17z"/>
</g>
</svg>
